<?xml version="1.0" encoding="utf-8"?>
<!-- Generator: Adobe Illustrator 23.1.1, SVG Export Plug-In . SVG Version: 6.00 Build 0)  -->
<svg version="1.2" baseProfile="tiny" id="g-aid-trends-300-img" xmlns="http://www.w3.org/2000/svg" xmlns:xlink="http://www.w3.org/1999/xlink"
	 x="0px" y="0px" viewBox="0 0 300 2020" xml:space="preserve">
<g>
	<line fill="none" stroke="#676767" stroke-miterlimit="10" x1="47.682" y1="1074.512" x2="272.328" y2="1074.512"/>
	<g style="opacity:0.8;">
		<line fill="none" stroke="#CCCCCC" stroke-miterlimit="10" x1="54.435" y1="994.968" x2="56.935" y2="994.968"/>
		
			<line fill="none" stroke="#CCCCCC" stroke-miterlimit="10" stroke-dasharray="4.951,4.951" x1="61.886" y1="994.968" x2="267.352" y2="994.968"/>
		<line fill="none" stroke="#CCCCCC" stroke-miterlimit="10" x1="269.828" y1="994.968" x2="272.328" y2="994.968"/>
	</g>
	<g style="opacity:0.8;">
		<line fill="none" stroke="#CCCCCC" stroke-miterlimit="10" x1="54.337" y1="915.505" x2="56.837" y2="915.505"/>
		
			<line fill="none" stroke="#CCCCCC" stroke-miterlimit="10" stroke-dasharray="4.9453,4.9453" x1="61.782" y1="915.505" x2="267.011" y2="915.505"/>
		<line fill="none" stroke="#CCCCCC" stroke-miterlimit="10" x1="269.484" y1="915.505" x2="271.984" y2="915.505"/>
	</g>
	<g style="opacity:0.8;">
		<line fill="none" stroke="#CCCCCC" stroke-miterlimit="10" x1="54.091" y1="836.042" x2="56.591" y2="836.042"/>
		
			<line fill="none" stroke="#CCCCCC" stroke-miterlimit="10" stroke-dasharray="4.951,4.951" x1="61.542" y1="836.042" x2="267.008" y2="836.042"/>
		<line fill="none" stroke="#CCCCCC" stroke-miterlimit="10" x1="269.484" y1="836.042" x2="271.984" y2="836.042"/>
	</g>
	<g style="opacity:0.8;">
		<line fill="none" stroke="#CCCCCC" stroke-miterlimit="10" x1="54.091" y1="756.579" x2="56.591" y2="756.579"/>
		
			<line fill="none" stroke="#CCCCCC" stroke-miterlimit="10" stroke-dasharray="4.951,4.951" x1="61.542" y1="756.579" x2="267.008" y2="756.579"/>
		<line fill="none" stroke="#CCCCCC" stroke-miterlimit="10" x1="269.484" y1="756.579" x2="271.984" y2="756.579"/>
	</g>
	<g style="opacity:0.8;">
		<line fill="none" stroke="#CCCCCC" stroke-miterlimit="10" x1="54.337" y1="677.116" x2="56.837" y2="677.116"/>
		
			<line fill="none" stroke="#CCCCCC" stroke-miterlimit="10" stroke-dasharray="4.9453,4.9453" x1="61.782" y1="677.116" x2="267.011" y2="677.116"/>
		<line fill="none" stroke="#CCCCCC" stroke-miterlimit="10" x1="269.484" y1="677.116" x2="271.984" y2="677.116"/>
	</g>
	<g style="opacity:0.8;">
		<line fill="none" stroke="#CCCCCC" stroke-miterlimit="10" x1="138.575" y1="597.654" x2="141.075" y2="597.654"/>
		
			<line fill="none" stroke="#CCCCCC" stroke-miterlimit="10" stroke-dasharray="5.1359,5.1359" x1="146.211" y1="597.654" x2="266.905" y2="597.654"/>
		<line fill="none" stroke="#CCCCCC" stroke-miterlimit="10" x1="269.473" y1="597.654" x2="271.973" y2="597.654"/>
	</g>
	<polyline fill="none" stroke="#ADDEE6" stroke-width="3" stroke-miterlimit="10" points="53.508,667.635 71.528,646.971 
		89.548,624.209 107.568,629.288 125.588,628.581 143.609,636.055 161.629,635.081 179.649,645.226 197.669,648.033 
		215.689,652.878 233.71,649.983 251.73,639.49 269.75,632.989 	"/>
	<g style="opacity:0.8;">
		<line fill="none" stroke="#CCCCCC" stroke-miterlimit="10" x1="40.21" y1="1850.179" x2="42.71" y2="1850.179"/>
		
			<line fill="none" stroke="#CCCCCC" stroke-miterlimit="10" stroke-dasharray="5.0945,5.0945" x1="47.804" y1="1850.179" x2="279.606" y2="1850.179"/>
		<line fill="none" stroke="#CCCCCC" stroke-miterlimit="10" x1="282.153" y1="1850.179" x2="284.653" y2="1850.179"/>
	</g>
	<g style="opacity:0.8;">
		<line fill="none" stroke="#CCCCCC" stroke-miterlimit="10" x1="40.1" y1="1741.997" x2="42.6" y2="1741.997"/>
		
			<line fill="none" stroke="#CCCCCC" stroke-miterlimit="10" stroke-dasharray="5.0887,5.0887" x1="47.688" y1="1741.997" x2="279.223" y2="1741.997"/>
		<line fill="none" stroke="#CCCCCC" stroke-miterlimit="10" x1="281.767" y1="1741.997" x2="284.267" y2="1741.997"/>
	</g>
	<g style="opacity:0.8;">
		<line fill="none" stroke="#CCCCCC" stroke-miterlimit="10" x1="135.482" y1="1633.816" x2="137.982" y2="1633.816"/>
		
			<line fill="none" stroke="#CCCCCC" stroke-miterlimit="10" stroke-dasharray="4.9725,4.9725" x1="142.954" y1="1633.816" x2="279.697" y2="1633.816"/>
		<line fill="none" stroke="#CCCCCC" stroke-miterlimit="10" x1="282.183" y1="1633.816" x2="284.683" y2="1633.816"/>
	</g>
	
	
	
	
	
	
	
	
	
	
	
	
	
	
	
	
	
	
	
	
	
	
	
	
	
	
	<g>
		<path fill="#FFB342" d="M40.1,1958.464h-6.017v-29.57c0-2.969,0.449-5.376,1.003-5.376h4.012c0.554,0,1.003,2.407,1.003,5.376
			V1958.464z"/>
		<path fill="#FFB342" d="M60.157,1958.464H54.14v-59.14c0-2.969,0.449-5.376,1.003-5.376h4.012c0.554,0,1.003,2.407,1.003,5.376
			V1958.464z"/>
		<path fill="#FFB342" d="M80.215,1958.464h-6.017v-99.463c0-2.969,0.449-5.376,1.003-5.376h4.012c0.554,0,1.003,2.407,1.003,5.376
			V1958.464z"/>
		<path fill="#FFB342" d="M100.273,1958.464h-6.017v-233.871c0-2.969,0.449-5.376,1.003-5.376h4.012
			c0.554,0,1.003,2.407,1.003,5.376V1958.464z"/>
		<path fill="#FFB342" d="M120.331,1958.464h-6.017v-131.721c0-2.969,0.449-5.376,1.003-5.376h4.012
			c0.554,0,1.003,2.407,1.003,5.376V1958.464z"/>
		<path fill="#FFB342" d="M140.388,1958.464h-6.017v-91.398c0-2.969,0.449-5.376,1.003-5.376h4.012c0.554,0,1.003,2.407,1.003,5.376
			V1958.464z"/>
		<path fill="#FFB342" d="M160.948,1958.464h-6.017v-59.14c0-2.969,0.449-5.376,1.003-5.376h4.012c0.554,0,1.003,2.407,1.003,5.376
			V1958.464z"/>
		<path fill="#FFB342" d="M181.005,1958.464h-6.017v-99.463c0-2.969,0.449-5.376,1.003-5.376h4.012c0.554,0,1.003,2.407,1.003,5.376
			V1958.464z"/>
		<path fill="#FFB342" d="M201.063,1958.464h-6.017v-83.333c0-2.969,0.449-5.376,1.003-5.376h4.012c0.554,0,1.003,2.407,1.003,5.376
			V1958.464z"/>
		<path fill="#FFB342" d="M221.121,1958.464h-6.017v-123.656c0-2.969,0.449-5.376,1.003-5.376h4.012
			c0.554,0,1.003,2.407,1.003,5.376V1958.464z"/>
		<path fill="#FFB342" d="M241.179,1958.464h-6.017v-147.85c0-2.969,0.449-5.376,1.003-5.376h4.012c0.554,0,1.003,2.407,1.003,5.376
			V1958.464z"/>
		<path fill="#FFB342" d="M261.237,1958.464h-6.017v-94.086c0-2.969,0.449-5.376,1.003-5.376h4.012c0.554,0,1.003,2.407,1.003,5.376
			V1958.464z"/>
		<path fill="#FFB342" d="M281.294,1958.464h-6.017v-51.075c0-2.969,0.449-5.376,1.003-5.376h4.012c0.554,0,1.003,2.407,1.003,5.376
			V1958.464z"/>
	</g>
	<g>
		<path fill="#46BDC6" d="M46.604,1958.464h-6.016v-83.333c0-2.969,0.449-5.376,1.003-5.376h4.011c0.554,0,1.003,2.407,1.003,5.376
			V1958.464z"/>
		<path fill="#46BDC6" d="M66.656,1958.464h-6.016v-174.732c0-2.969,0.449-5.376,1.003-5.376h4.011c0.554,0,1.003,2.407,1.003,5.376
			V1958.464z"/>
		<path fill="#46BDC6" d="M86.709,1958.464h-6.016v-220.431c0-2.969,0.449-5.376,1.003-5.376h4.011c0.554,0,1.003,2.407,1.003,5.376
			V1958.464z"/>
		<path fill="#46BDC6" d="M106.762,1958.464h-6.016v-206.99c0-2.969,0.449-5.376,1.003-5.376h4.011c0.554,0,1.003,2.407,1.003,5.376
			V1958.464z"/>
		<path fill="#46BDC6" d="M126.815,1958.464h-6.016v-137.097c0-2.969,0.449-5.376,1.003-5.376h4.011
			c0.554,0,1.003,2.407,1.003,5.376V1958.464z"/>
		<path fill="#46BDC6" d="M146.868,1958.464h-6.016v-53.764c0-2.969,0.449-5.376,1.003-5.376h4.011c0.554,0,1.003,2.407,1.003,5.376
			V1958.464z"/>
		<path fill="#46BDC6" d="M167.422,1958.464h-6.016v-64.516c0-2.969,0.449-5.376,1.003-5.376h4.011c0.554,0,1.003,2.407,1.003,5.376
			V1958.464z"/>
		<path fill="#46BDC6" d="M187.475,1958.464h-6.016v-48.387c0-2.969,0.449-5.376,1.003-5.376h4.011c0.554,0,1.003,2.407,1.003,5.376
			V1958.464z"/>
		<path fill="#46BDC6" d="M207.528,1958.464h-6.016v-67.204c0-2.969,0.449-5.376,1.003-5.376h4.011c0.554,0,1.003,2.407,1.003,5.376
			V1958.464z"/>
		<path fill="#46BDC6" d="M227.581,1958.464h-6.016v-99.463c0-2.969,0.449-5.376,1.003-5.376h4.011c0.554,0,1.003,2.407,1.003,5.376
			V1958.464z"/>
		<path fill="#46BDC6" d="M247.634,1958.464h-6.016v-163.979c0-2.969,0.449-5.376,1.003-5.376h4.011
			c0.554,0,1.003,2.407,1.003,5.376V1958.464z"/>
		<path fill="#46BDC6" d="M267.687,1958.464h-6.016v-150.538c0-2.969,0.449-5.376,1.003-5.376h4.011
			c0.554,0,1.003,2.407,1.003,5.376V1958.464z"/>
		<path fill="#46BDC6" d="M287.74,1958.464h-6.016v-83.333c0-2.969,0.449-5.376,1.003-5.376h4.011c0.554,0,1.003,2.407,1.003,5.376
			V1958.464z"/>
	</g>
	<line fill="none" stroke="#676767" stroke-miterlimit="10" x1="34.082" y1="1958.472" x2="287.294" y2="1958.472"/>
	<!-- <rect x="9.06" y="149.579" fill="none" stroke="#EFEFEF" stroke-miterlimit="10" width="282.547" height="415.479"/> -->
	<!-- <rect x="7.63" y="1127.336" fill="none" stroke="#EFEFEF" stroke-miterlimit="10" width="285.776" height="472.491"/> --> 
	<g>
		<g>
			<line fill="none" stroke="#676767" stroke-miterlimit="10" x1="47.739" y1="1074.01" x2="47.739" y2="1078.656"/>
			<line fill="none" stroke="#676767" stroke-miterlimit="10" x1="71.758" y1="1074.562" x2="71.758" y2="1078.625"/>
			<line fill="none" stroke="#676767" stroke-miterlimit="10" x1="89.862" y1="1074.53" x2="89.862" y2="1078.593"/>
			<line fill="none" stroke="#676767" stroke-miterlimit="10" x1="108.002" y1="1074.499" x2="108.002" y2="1078.562"/>
		</g>
		<g>
			<line fill="none" stroke="#676767" stroke-miterlimit="10" x1="198.177" y1="1074.593" x2="198.177" y2="1078.656"/>
			<line fill="none" stroke="#676767" stroke-miterlimit="10" x1="216.195" y1="1074.562" x2="216.195" y2="1078.625"/>
			<line fill="none" stroke="#676767" stroke-miterlimit="10" x1="234.299" y1="1074.53" x2="234.299" y2="1078.593"/>
			<line fill="none" stroke="#676767" stroke-miterlimit="10" x1="252.439" y1="1074.499" x2="252.439" y2="1078.562"/>
		</g>
		<line fill="none" stroke="#676767" stroke-miterlimit="10" x1="272.406" y1="1074.022" x2="272.406" y2="1078.51"/>
		<g>
			<line fill="none" stroke="#676767" stroke-miterlimit="10" x1="126" y1="1074.426" x2="126" y2="1078.489"/>
			<line fill="none" stroke="#676767" stroke-miterlimit="10" x1="144.019" y1="1074.395" x2="144.019" y2="1078.458"/>
			<line fill="none" stroke="#676767" stroke-miterlimit="10" x1="162.123" y1="1074.364" x2="162.123" y2="1078.427"/>
			<line fill="none" stroke="#676767" stroke-miterlimit="10" x1="180.263" y1="1074.332" x2="180.263" y2="1078.395"/>
		</g>
	</g>
	<g>
		<g>
			<line fill="none" stroke="#676767" stroke-miterlimit="10" x1="40.145" y1="1958.795" x2="40.145" y2="1962.858"/>
			<line fill="none" stroke="#676767" stroke-miterlimit="10" x1="60.18" y1="1958.764" x2="60.18" y2="1962.827"/>
			<line fill="none" stroke="#676767" stroke-miterlimit="10" x1="80.312" y1="1958.733" x2="80.312" y2="1962.796"/>
			<line fill="none" stroke="#676767" stroke-miterlimit="10" x1="100.483" y1="1958.701" x2="100.483" y2="1962.764"/>
		</g>
		<g>
			<line fill="none" stroke="#676767" stroke-miterlimit="10" x1="200.755" y1="1958.795" x2="200.755" y2="1962.858"/>
			<line fill="none" stroke="#676767" stroke-miterlimit="10" x1="220.791" y1="1958.764" x2="220.791" y2="1962.827"/>
			<line fill="none" stroke="#676767" stroke-miterlimit="10" x1="240.923" y1="1958.733" x2="240.923" y2="1962.796"/>
			<line fill="none" stroke="#676767" stroke-miterlimit="10" x1="261.094" y1="1958.701" x2="261.094" y2="1962.764"/>
		</g>
		<line fill="none" stroke="#676767" stroke-miterlimit="10" x1="281.073" y1="1958.649" x2="281.073" y2="1962.712"/>
		<g>
			<line fill="none" stroke="#676767" stroke-miterlimit="10" x1="120.497" y1="1958.628" x2="120.497" y2="1962.692"/>
			<line fill="none" stroke="#676767" stroke-miterlimit="10" x1="140.533" y1="1958.597" x2="140.533" y2="1962.66"/>
			<line fill="none" stroke="#676767" stroke-miterlimit="10" x1="160.664" y1="1958.566" x2="160.664" y2="1962.629"/>
			<line fill="none" stroke="#676767" stroke-miterlimit="10" x1="180.835" y1="1958.535" x2="180.835" y2="1962.598"/>
		</g>
	</g>
</g>
<style>
#g-aid-trends-300-img rect, #g-aid-trends-300-img circle, #g-aid-trends-300-img path, #g-aid-trends-300-img line, #g-aid-trends-300-img polyline { vector-effect: non-scaling-stroke; }
</style>
</svg>

