<?xml version="1.0" encoding="utf-8"?>
<!-- Generator: Adobe Illustrator 23.1.1, SVG Export Plug-In . SVG Version: 6.00 Build 0)  -->
<svg version="1.2" baseProfile="tiny" id="g-pie-1200-img" xmlns="http://www.w3.org/2000/svg" xmlns:xlink="http://www.w3.org/1999/xlink"
	 x="0px" y="0px" viewBox="0 0 1200 690" xml:space="preserve">
<g>
	<path fill="#02A9C0" d="M746.881,129.692c4.988-20.083,16.563-37.927,32.867-50.669c16.304-12.743,36.416-19.663,57.109-19.652
		l-0.052,92.656L746.881,129.692z"/>
	<path style="opacity:0.8;" fill="#FF9900" d="M842.562,66.671c11.958,0.007,23.802,2.328,34.877,6.836
		c11.075,4.508,21.174,11.117,29.738,19.462l-64.666,66.358L842.562,66.671z"/>
	<path style="opacity:0.6;" fill="#CCCCCC" d="M907.177,92.969c11.632,11.336,20.082,25.533,24.498,41.163
		c4.416,15.63,4.647,32.15,0.667,47.897c-3.979,15.747-12.03,30.174-23.342,41.829c-11.312,11.655-25.492,20.134-41.113,24.582
		c-15.621,4.448-32.14,4.712-47.895,0.765c-15.755-3.947-30.198-11.969-41.877-23.257c-11.678-11.288-20.186-25.451-24.666-41.062
		c-4.48-15.612-4.778-32.131-0.863-47.893l89.924,22.335L907.177,92.969z"/>
	<path fill="#02A9C0" d="M314.251,351.636c4.141-12.883,12.277-24.12,23.224-32.076c10.947-7.955,24.147-12.224,37.679-12.185
		l-0.186,63.777L314.251,351.636z"/>
	<path style="opacity:0.8;" fill="#FF9900" d="M378.903,312.535c11.664,0.034,23.098,3.267,33.052,9.345
		c9.955,6.079,18.054,14.773,23.412,25.133c5.358,10.36,7.773,21.994,6.981,33.631c-0.792,11.637-4.762,22.836-11.475,32.375
		l-52.155-36.707L378.903,312.535z"/>
	<path style="opacity:0.6;" fill="#CCCCCC" d="M430.873,413.019c-8.775,12.469-21.738,21.386-36.519,25.124
		c-14.782,3.738-30.425,2.054-44.072-4.744c-13.648-6.798-24.415-18.27-30.336-32.32c-5.921-14.05-6.612-29.769-1.946-44.284
		l60.718,19.517L430.873,413.019z"/>
	<path fill="#02A9C0" d="M889.424,521.261c5.496-9.951,13.562-18.248,23.355-24.023c9.792-5.775,20.956-8.818,32.325-8.812
		l-0.033,63.569L889.424,521.261z"/>
	<path style="opacity:0.8;" fill="#FF9900" d="M948.332,493.901c6.431,0.003,12.825,0.983,18.963,2.905
		c6.138,1.922,11.948,4.764,17.233,8.43l-36.229,52.235L948.332,493.901z"/>
	<path style="opacity:0.6;" fill="#CCCCCC" d="M984.528,505.236c10.104,7.008,17.96,16.799,22.613,28.18
		c4.653,11.382,5.905,23.873,3.604,35.951c-2.301,12.079-8.058,23.234-16.57,32.108c-8.512,8.874-19.418,15.09-31.39,17.892
		c-11.973,2.802-24.505,2.071-36.07-2.104c-11.565-4.175-21.675-11.617-29.097-21.421c-7.422-9.803-11.843-21.553-12.724-33.817
		c-0.881-12.264,1.815-24.525,7.76-35.288l55.646,30.734L984.528,505.236z"/>
	<path fill="#02A9C0" d="M579.358,320.47c5.249-3.629,11.016-6.445,17.104-8.355c6.089-1.91,12.431-2.891,18.812-2.91l0.19,63.498
		L579.358,320.47z"/>
	<path style="opacity:0.8;" fill="#FF9900" d="M617.175,315.264c11.682-0.035,23.15,3.154,33.136,9.216
		c9.986,6.061,18.109,14.762,23.47,25.141c5.361,10.379,7.756,22.039,6.919,33.691s-4.873,22.85-11.663,32.356l-51.672-36.905
		L617.175,315.264z"/>
	<path style="opacity:0.6;" fill="#CCCCCC" d="M669.036,415.667c-5.384,7.538-12.352,13.807-20.415,18.367
		c-8.063,4.56-17.027,7.3-26.261,8.029c-9.234,0.729-18.517-0.572-27.196-3.811s-16.544-8.337-23.043-14.937
		c-6.499-6.6-11.476-14.543-14.581-23.27s-4.263-18.029-3.392-27.251c0.871-9.222,3.749-18.143,8.432-26.135
		c4.683-7.992,11.059-14.863,18.679-20.13l36.106,52.233L669.036,415.667z"/>
	<path fill="#02A9C0" d="M816.319,322.567c4.3-2.088,8.822-3.683,13.48-4.755c4.658-1.072,9.422-1.614,14.202-1.617l0.029,63.445
		L816.319,322.567z"/>
	<path style="opacity:0.8;" fill="#FF9900" d="M845.423,322.379c9.208-0.004,18.308,1.996,26.665,5.862
		c8.357,3.866,15.774,9.505,21.733,16.526c5.959,7.02,10.319,15.254,12.776,24.129c2.457,8.874,2.953,18.178,1.453,27.263
		s-4.96,17.736-10.139,25.35c-5.179,7.614-11.954,14.009-19.854,18.741s-16.735,7.688-25.891,8.663
		c-9.157,0.974-18.416-0.056-27.135-3.02l20.421-60.069L845.423,322.379z"/>
	<path style="opacity:0.6;" fill="#CCCCCC" d="M825.031,445.892c-11.908-4.048-22.348-11.548-29.986-21.541
		c-7.638-9.993-12.134-22.035-12.915-34.588c-0.781-12.553,2.188-25.06,8.528-35.922c6.34-10.863,15.77-19.598,27.084-25.092
		l27.71,57.074L825.031,445.892z"/>
	<path fill="#02A9C0" d="M228.76,505.802c5.855-5.61,12.728-10.051,20.248-13.083s15.552-4.6,23.661-4.619l0.149,63.679
		L228.76,505.802z"/>
	<path style="opacity:0.8;" fill="#FF9900" d="M275.05,494.006c3.64-0.009,7.274,0.295,10.862,0.907
		c3.588,0.612,7.117,1.531,10.548,2.746l-21.26,60.025L275.05,494.006z"/>
	<path style="opacity:0.6;" fill="#CCCCCC" d="M296.46,497.66c6.49,2.299,12.565,5.635,17.987,9.879
		c5.422,4.244,10.12,9.339,13.911,15.086c3.791,5.748,6.625,12.072,8.391,18.727c1.766,6.655,2.441,13.553,1.999,20.424
		c-0.442,6.871-1.996,13.625-4.601,19.999c-2.605,6.374-6.226,12.283-10.722,17.497c-4.496,5.214-9.809,9.665-15.73,13.178
		c-5.921,3.513-12.374,6.043-19.105,7.491c-6.731,1.448-13.653,1.794-20.495,1.026c-6.842-0.768-13.515-2.641-19.757-5.546
		s-11.973-6.803-16.968-11.542c-4.995-4.739-9.188-10.257-12.416-16.339c-3.228-6.082-5.448-12.647-6.575-19.439
		c-1.126-6.793-1.143-13.723-0.051-20.521c1.093-6.798,3.281-13.374,6.479-19.472c3.198-6.097,7.364-11.636,12.335-16.4
		l44.059,45.977L296.46,497.66z"/>
	<path fill="#02A9C0" d="M438.973,538.616c3.297-14.066,11.261-26.609,22.589-35.577c11.327-8.967,25.364-13.84,39.811-13.821
		l-0.084,64.005L438.973,538.616z"/>
	<path style="opacity:0.8;" fill="#FF9900" d="M505.345,494.237c16.696,0.022,32.737,6.575,44.672,18.25
		s18.841,27.568,19.231,44.259l-63.987,1.496L505.345,494.237z"/>
	<path style="opacity:0.6;" fill="#CCCCCC" d="M569.249,556.746c0.212,9.086-1.513,18.114-5.061,26.481
		c-3.548,8.367-8.837,15.884-15.516,22.048c-6.679,6.164-14.594,10.836-23.218,13.703s-17.761,3.865-26.801,2.927
		c-9.04-0.938-17.777-3.792-25.628-8.369s-14.639-10.775-19.909-18.18c-5.27-7.404-8.903-15.847-10.657-24.765
		c-1.754-8.918-1.588-18.107,0.486-26.956l62.316,14.607L569.249,556.746z"/>
	<path fill="#02A9C0" d="M671.917,591.14c-6.71-9.758-10.62-21.17-11.304-32.992c-0.684-11.822,1.884-23.609,7.423-34.076
		s13.842-19.218,24.002-25.301c10.16-6.083,21.796-9.267,33.638-9.207l-0.332,64.838L671.917,591.14z"/>
	<path style="opacity:0.8;" fill="#FF9900" d="M731.407,492.597c11.801,0.06,23.364,3.342,33.438,9.488
		c10.074,6.146,18.281,14.928,23.734,25.394l-57.504,29.956L731.407,492.597z"/>
	<path style="opacity:0.6;" fill="#CCCCCC" d="M788.579,527.48c7.626,14.639,9.381,31.651,4.905,47.539
		c-4.476,15.888-14.854,29.481-29.001,37.986c-14.146,8.505-31.02,11.295-47.151,7.797S687,607.774,677.648,594.173l53.427-36.737
		L788.579,527.48z"/>	
</g>
<style>
#g-pie-1200-img rect, #g-pie-1200-img circle, #g-pie-1200-img path, #g-pie-1200-img line, #g-pie-1200-img polyline { vector-effect: non-scaling-stroke; }
</style>
</svg>

