<?xml version="1.0" encoding="utf-8"?>
<!-- Generator: Adobe Illustrator 23.1.1, SVG Export Plug-In . SVG Version: 6.00 Build 0)  -->
<svg version="1.2" baseProfile="tiny" id="g-pie-300-img" xmlns="http://www.w3.org/2000/svg" xmlns:xlink="http://www.w3.org/1999/xlink"
	 x="0px" y="0px" viewBox="0 0 300 910" xml:space="preserve">
<g>
	<path fill="#02A9C0" d="M76.313,530.239c4.151-16.715,13.785-31.566,27.355-42.172s30.309-16.366,47.531-16.356l-0.043,77.117
		L76.313,530.239z"/>
	<path style="opacity:0.8;" fill="#FF9900" d="M155.948,477.788c9.952,0.006,19.81,1.938,29.028,5.689s17.623,9.253,24.751,16.198
		l-53.821,55.229L155.948,477.788z"/>
	<path fill="#CCCCCC" d="M209.726,499.675c9.681,9.435,16.714,21.251,20.39,34.259c3.676,13.009,3.867,26.758,0.555,39.864
		c-3.312,13.106-10.013,25.114-19.427,34.814c-9.415,9.701-21.217,16.757-34.218,20.459c-13.001,3.702-26.75,3.922-39.863,0.637
		c-13.113-3.285-25.134-9.961-34.854-19.356c-9.72-9.395-16.8-21.182-20.529-34.176c-3.729-12.994-3.977-26.742-0.718-39.861
		l74.843,18.589L209.726,499.675z"/>
	<path fill="#02A9C0" d="M48.953,695.02c1.648-5.127,4.886-9.598,9.242-12.764c4.356-3.166,9.609-4.864,14.994-4.849l-0.074,25.379
		L48.953,695.02z"/>
	<path style="opacity:0.8;" fill="#FF9900" d="M74.681,679.46c4.641,0.013,9.191,1.3,13.153,3.719
		c3.961,2.419,7.184,5.879,9.316,10.001c2.132,4.123,3.093,8.752,2.778,13.383c-0.315,4.631-1.895,9.087-4.566,12.883
		l-20.755-14.607L74.681,679.46z"/>
	<path fill="#CCCCCC" d="M95.361,719.446c-3.492,4.962-8.65,8.51-14.532,9.998c-5.882,1.487-12.107,0.817-17.538-1.888
		c-5.431-2.705-9.716-7.27-12.072-12.862c-2.356-5.591-2.631-11.846-0.774-17.622l24.162,7.767L95.361,719.446z"/>
	<path fill="#02A9C0" d="M244.698,762.02c2.187-3.96,5.397-7.262,9.294-9.56c3.897-2.298,8.339-3.509,12.863-3.507l-0.013,25.297
		L244.698,762.02z"/>
	<path style="opacity:0.8;" fill="#FF9900" d="M268.139,751.132c2.559,0.001,5.104,0.391,7.546,1.156
		c2.442,0.765,4.755,1.896,6.858,3.354l-14.417,20.786L268.139,751.132z"/>
	<path fill="#CCCCCC" d="M282.543,755.643c4.021,2.789,7.147,6.685,8.999,11.214c1.852,4.529,2.35,9.5,1.434,14.306
		c-0.916,4.807-3.207,9.246-6.594,12.777c-3.387,3.531-7.727,6.005-12.491,7.12c-4.764,1.115-9.751,0.824-14.354-0.837
		c-4.602-1.661-8.625-4.623-11.579-8.524c-2.954-3.901-4.713-8.577-5.063-13.457c-0.351-4.88,0.722-9.759,3.088-14.043l22.144,12.23
		L282.543,755.643z"/>
	<path fill="#02A9C0" d="M138.449,681.617c2.089-1.444,4.383-2.565,6.806-3.325c2.423-0.76,4.947-1.15,7.486-1.158l0.076,25.268
		L138.449,681.617z"/>
	<path style="opacity:0.8;" fill="#FF9900" d="M153.498,679.546c4.649-0.014,9.212,1.255,13.186,3.667
		c3.974,2.412,7.206,5.874,9.34,10.005s3.086,8.77,2.753,13.407c-0.333,4.637-1.939,9.093-4.641,12.876l-20.562-14.686
		L153.498,679.546z"/>
	<path fill="#CCCCCC" d="M174.136,719.5c-2.142,3-4.915,5.494-8.124,7.309c-3.209,1.814-6.776,2.905-10.45,3.195
		s-7.369-0.228-10.822-1.516s-6.583-3.318-9.17-5.944c-2.586-2.626-4.567-5.787-5.802-9.26c-1.236-3.473-1.696-7.174-1.35-10.844
		c0.346-3.67,1.492-7.22,3.355-10.4c1.864-3.18,4.401-5.915,7.433-8.011l14.368,20.786L174.136,719.5z"/>
	<path fill="#02A9C0" d="M221.745,679.452c1.711-0.831,3.51-1.465,5.364-1.892c1.854-0.427,3.749-0.642,5.651-0.643l0.011,25.247
		L221.745,679.452z"/>
	<path style="opacity:0.8;" fill="#FF9900" d="M233.327,679.377c3.664-0.002,7.285,0.794,10.611,2.333
		c3.326,1.538,6.277,3.783,8.648,6.576c2.371,2.794,4.106,6.07,5.084,9.602c0.978,3.531,1.175,7.234,0.578,10.849
		s-1.974,7.058-4.035,10.088s-4.757,5.575-7.901,7.458c-3.143,1.883-6.659,3.059-10.303,3.447
		c-3.644,0.388-7.329-0.022-10.798-1.202l8.126-23.904L233.327,679.377z"/>
	<path fill="#CCCCCC" d="M225.212,728.528c-4.739-1.611-8.893-4.595-11.932-8.572c-3.039-3.977-4.829-8.768-5.14-13.764
		s0.871-9.972,3.394-14.295s6.275-7.799,10.778-9.985l11.027,22.712L225.212,728.528z"/>
	<path fill="#02A9C0" d="M14.855,756.719c2.33-2.233,5.065-4,8.058-5.206c2.993-1.207,6.189-1.83,9.416-1.838l0.059,25.34
		L14.855,756.719z"/>
	<path style="opacity:0.8;" fill="#FF9900" d="M33.275,752.025c1.448-0.003,2.895,0.117,4.322,0.361
		c1.428,0.244,2.832,0.609,4.197,1.093l-8.46,23.886L33.275,752.025z"/>
	<path fill="#CCCCCC" d="M41.795,753.479c2.583,0.915,5,2.242,7.158,3.931c2.158,1.689,4.027,3.716,5.536,6.003
		c1.509,2.287,2.636,4.804,3.339,7.452c0.703,2.648,0.971,5.393,0.795,8.127c-0.176,2.734-0.794,5.422-1.831,7.958
		c-1.036,2.536-2.477,4.888-4.267,6.963c-1.789,2.075-3.903,3.846-6.26,5.244c-2.356,1.398-4.924,2.405-7.603,2.981
		c-2.679,0.576-5.433,0.714-8.156,0.408c-2.723-0.306-5.378-1.051-7.862-2.207c-2.484-1.156-4.765-2.707-6.752-4.593
		s-3.656-4.082-4.941-6.502c-1.285-2.42-2.168-5.033-2.616-7.736c-0.448-2.703-0.455-5.461-0.02-8.166
		c0.435-2.705,1.306-5.322,2.578-7.749c1.273-2.426,2.93-4.63,4.909-6.526l17.533,18.296L41.795,753.479z"/>
	<path fill="#02A9C0" d="M83.921,770.13c1.312-5.597,4.481-10.589,8.989-14.157c4.508-3.568,10.093-5.508,15.842-5.5l-0.033,25.47
		L83.921,770.13z"/>
	<path style="opacity:0.8;" fill="#FF9900" d="M110.333,752.47c6.644,0.009,13.027,2.617,17.777,7.262s7.498,10.97,7.653,17.612
		L110.3,777.94L110.333,752.47z"/>
	<path fill="#CCCCCC" d="M135.763,777.345c0.085,3.616-0.602,7.208-2.014,10.538c-1.412,3.33-3.517,6.321-6.174,8.774
		c-2.658,2.453-5.808,4.312-9.239,5.453c-3.432,1.141-7.068,1.538-10.665,1.165c-3.597-0.373-7.074-1.509-10.199-3.33
		c-3.124-1.822-5.825-4.288-7.922-7.234c-2.097-2.947-3.543-6.306-4.241-9.855c-0.698-3.549-0.632-7.206,0.194-10.727l24.798,5.813
		L135.763,777.345z"/>
	<path fill="#02A9C0" d="M174.143,790.225c-2.67-3.883-4.226-8.424-4.498-13.129c-0.272-4.705,0.75-9.395,2.954-13.56
		s5.508-7.648,9.551-10.068c4.043-2.421,8.673-3.688,13.386-3.664l-0.132,25.802L174.143,790.225z"/>
	<path style="opacity:0.8;" fill="#FF9900" d="M197.817,751.011c4.696,0.024,9.298,1.33,13.306,3.776s7.275,5.941,9.444,10.105
		l-22.883,11.921L197.817,751.011z"/>
	<path fill="#CCCCCC" d="M220.568,764.892c3.035,5.825,3.733,12.595,1.952,18.917s-5.911,11.732-11.54,15.116
		c-5.629,3.384-12.344,4.495-18.763,3.103c-6.419-1.392-12.071-5.184-15.792-10.596l21.261-14.619L220.568,764.892z"/>
</g>
<style>
#g-pie-300-img rect, #g-pie-300-img circle, #g-pie-300-img path, #g-pie-300-img line, #g-pie-300-img polyline { vector-effect: non-scaling-stroke; }
</style>
</svg>

