<?xml version="1.0" encoding="utf-8"?>
<!-- Generator: Adobe Illustrator 23.1.1, SVG Export Plug-In . SVG Version: 6.00 Build 0)  -->
<svg version="1.2" baseProfile="tiny" id="g-revenue-change-600-img" xmlns="http://www.w3.org/2000/svg" xmlns:xlink="http://www.w3.org/1999/xlink"
	 x="0px" y="0px" viewBox="0 0 600 500" xml:space="preserve">
<g>
	<g style="opacity:0.8;">
		<line fill="none" stroke="#CBCBCA" stroke-miterlimit="10" x1="109.696" y1="461.882" x2="112.196" y2="461.882"/>
		
			<line fill="none" stroke="#CBCBCA" stroke-miterlimit="10" stroke-dasharray="5.0328,5.0328" x1="117.229" y1="461.882" x2="527.401" y2="461.882"/>
		<line fill="none" stroke="#CBCBCA" stroke-miterlimit="10" x1="529.917" y1="461.882" x2="532.417" y2="461.882"/>
	</g>
	<g style="opacity:0.8;">
		<line fill="none" stroke="#CBCBCA" stroke-miterlimit="10" x1="109.696" y1="409.043" x2="112.196" y2="409.043"/>
		
			<line fill="none" stroke="#CBCBCA" stroke-miterlimit="10" stroke-dasharray="5.0328,5.0328" x1="117.229" y1="409.043" x2="527.401" y2="409.043"/>
		<line fill="none" stroke="#CBCBCA" stroke-miterlimit="10" x1="529.917" y1="409.043" x2="532.417" y2="409.043"/>
	</g>
	<g style="opacity:0.8;">
		<line fill="none" stroke="#CBCBCA" stroke-miterlimit="10" x1="109.696" y1="302.5" x2="112.196" y2="302.5"/>
		
			<line fill="none" stroke="#CBCBCA" stroke-miterlimit="10" stroke-dasharray="5.0328,5.0328" x1="117.229" y1="302.5" x2="527.401" y2="302.5"/>
		<line fill="none" stroke="#CBCBCA" stroke-miterlimit="10" x1="529.917" y1="302.5" x2="532.417" y2="302.5"/>
	</g>
	<g style="opacity:0.8;">
		<line fill="none" stroke="#CBCBCA" stroke-miterlimit="10" x1="109.696" y1="248.796" x2="112.196" y2="248.796"/>
		
			<line fill="none" stroke="#CBCBCA" stroke-miterlimit="10" stroke-dasharray="5.0328,5.0328" x1="117.229" y1="248.796" x2="527.401" y2="248.796"/>
		<line fill="none" stroke="#CBCBCA" stroke-miterlimit="10" x1="529.917" y1="248.796" x2="532.417" y2="248.796"/>
	</g>
	<g style="opacity:0.8;">
		<line fill="none" stroke="#CBCBCA" stroke-miterlimit="10" x1="244.755" y1="195.957" x2="247.255" y2="195.957"/>
		
			<line fill="none" stroke="#CBCBCA" stroke-miterlimit="10" stroke-dasharray="4.8909,4.8909" x1="252.146" y1="195.957" x2="464.898" y2="195.957"/>
		<line fill="none" stroke="#CBCBCA" stroke-miterlimit="10" x1="467.344" y1="195.957" x2="469.844" y2="195.957"/>
	</g>
	
	<path fill="#02A9C0" d="M159.884,355.772h-32.643V233.637c0-0.957,0.731-1.732,1.632-1.732h29.378c0.901,0,1.632,0.776,1.632,1.732
		V355.772z"/>
	
	<path fill="#ADDEE6" d="M210.48,355.772h-32.643v-32.05c0-0.957,0.731-1.732,1.632-1.732h29.378c0.901,0,1.632,0.776,1.632,1.732
		V355.772z"/>
	
	<path fill="#ADDEE6" d="M261.076,355.772h-32.643v65.831c0,0.957,0.731,1.732,1.632,1.732h29.378c0.901,0,1.632-0.776,1.632-1.732
		V355.772z"/>
	
	<path fill="#ADDEE6" d="M311.672,355.772h-32.643v102.212c0,0.957,0.731,1.732,1.632,1.732h29.378c0.901,0,1.632-0.776,1.632-1.732
		V355.772z"/>
	
	<path fill="#ADDEE6" d="M363.084,355.772h-32.643v78.825c0,0.957,0.731,1.732,1.632,1.732h29.378c0.901,0,1.632-0.776,1.632-1.732
		V355.772z"/>
	
	<path fill="#ADDEE6" d="M413.68,355.772h-32.643v-18.19c0-0.957,0.731-1.732,1.632-1.732h29.378c0.901,0,1.632,0.776,1.632,1.732
		V355.772z"/>
	
	<path fill="#ADDEE6" d="M464.276,355.772h-32.643V231.905c0-0.957,0.731-1.732,1.632-1.732h29.378c0.901,0,1.632,0.776,1.632,1.732
		V355.772z"/>
	
	<path fill="#ADDEE6" d="M514.872,355.772h-32.643V212.848c0-0.957,0.731-1.732,1.632-1.732h29.378c0.901,0,1.632,0.776,1.632,1.732
		V355.772z"/>
	
		<line style="opacity:0.8;" fill="none" stroke="#CBCBCA" stroke-miterlimit="10" stroke-dasharray="5" x1="526.339" y1="195.957" x2="533.417" y2="195.957"/>
	<line fill="none" stroke="#676767" stroke-miterlimit="10" x1="109.696" y1="355.339" x2="532.417" y2="355.339"/>
</g>
<style>
#g-revenue-change-600-img rect, #g-revenue-change-600-img circle, #g-revenue-change-600-img path, #g-revenue-change-600-img line, #g-revenue-change-600-img polyline { vector-effect: non-scaling-stroke; }
</style>
</svg>

