<?xml version="1.0" encoding="utf-8"?>
<!-- Generator: Adobe Illustrator 23.1.1, SVG Export Plug-In . SVG Version: 6.00 Build 0)  -->
<svg version="1.2" baseProfile="tiny" id="g-aid-trends-600-img" xmlns="http://www.w3.org/2000/svg" xmlns:xlink="http://www.w3.org/1999/xlink"
	 x="0px" y="0px" viewBox="0 0 600 1909.584" xml:space="preserve">
<g>
	<line fill="none" stroke="#676767" stroke-miterlimit="10" x1="62.154" y1="1026.857" x2="560" y2="1026.857"/>
	<g style="opacity:0.8;">
		<line fill="none" stroke="#CCCCCC" stroke-miterlimit="10" x1="62.154" y1="936.541" x2="64.654" y2="936.541"/>
		
			<line fill="none" stroke="#CCCCCC" stroke-miterlimit="10" stroke-dasharray="4.9782,4.9782" x1="69.633" y1="936.541" x2="555.011" y2="936.541"/>
		<line fill="none" stroke="#CCCCCC" stroke-miterlimit="10" x1="557.5" y1="936.541" x2="560" y2="936.541"/>
	</g>
	<g style="opacity:0.8;">
		<line fill="none" stroke="#CCCCCC" stroke-miterlimit="10" x1="61.93" y1="846.318" x2="64.43" y2="846.318"/>
		
			<line fill="none" stroke="#CCCCCC" stroke-miterlimit="10" stroke-dasharray="4.9726,4.9726" x1="69.402" y1="846.318" x2="554.228" y2="846.318"/>
		<line fill="none" stroke="#CCCCCC" stroke-miterlimit="10" x1="556.714" y1="846.318" x2="559.214" y2="846.318"/>
	</g>
	<g style="opacity:0.8;">
		<line fill="none" stroke="#CCCCCC" stroke-miterlimit="10" x1="61.368" y1="756.094" x2="63.868" y2="756.094"/>
		
			<line fill="none" stroke="#CCCCCC" stroke-miterlimit="10" stroke-dasharray="4.9782,4.9782" x1="68.846" y1="756.094" x2="554.225" y2="756.094"/>
		<line fill="none" stroke="#CCCCCC" stroke-miterlimit="10" x1="556.714" y1="756.094" x2="559.214" y2="756.094"/>
	</g>
	<g style="opacity:0.8;">
		<line fill="none" stroke="#CCCCCC" stroke-miterlimit="10" x1="61.368" y1="665.871" x2="63.868" y2="665.871"/>
		
			<line fill="none" stroke="#CCCCCC" stroke-miterlimit="10" stroke-dasharray="4.9782,4.9782" x1="68.846" y1="665.871" x2="554.225" y2="665.871"/>
		<line fill="none" stroke="#CCCCCC" stroke-miterlimit="10" x1="556.714" y1="665.871" x2="559.214" y2="665.871"/>
	</g>
	<g style="opacity:0.8;">
		<line fill="none" stroke="#CCCCCC" stroke-miterlimit="10" x1="61.93" y1="575.647" x2="64.43" y2="575.647"/>
		
			<line fill="none" stroke="#CCCCCC" stroke-miterlimit="10" stroke-dasharray="4.9726,4.9726" x1="69.402" y1="575.647" x2="554.228" y2="575.647"/>
		<line fill="none" stroke="#CCCCCC" stroke-miterlimit="10" x1="556.714" y1="575.647" x2="559.214" y2="575.647"/>
	</g>
	<g style="opacity:0.8;">
		<line fill="none" stroke="#CCCCCC" stroke-miterlimit="10" x1="155.874" y1="485.424" x2="158.374" y2="485.424"/>
		
			<line fill="none" stroke="#CCCCCC" stroke-miterlimit="10" stroke-dasharray="5.0423,5.0423" x1="163.416" y1="485.424" x2="554.193" y2="485.424"/>
		<line fill="none" stroke="#CCCCCC" stroke-miterlimit="10" x1="556.714" y1="485.424" x2="559.214" y2="485.424"/>
	</g>
	<polyline fill="none" stroke="#ADDEE6" stroke-width="3" stroke-miterlimit="10" points="75.064,564.882 114.999,541.419 
		154.934,515.575 194.87,521.342 234.805,520.539 274.74,529.026 314.676,527.919 354.611,539.438 394.546,542.625 434.482,548.127 
		474.417,544.839 514.352,532.925 554.288,525.544 	"/>
	<line fill="none" stroke="#CCCCCC" stroke-miterlimit="10" x1="55.071" y1="1834.626" x2="560" y2="1834.626"/>
	<g style="opacity:0.8;">
		<line fill="none" stroke="#CCCCCC" stroke-miterlimit="10" x1="55.225" y1="1726.334" x2="57.725" y2="1726.334"/>
		
			<line fill="none" stroke="#CCCCCC" stroke-miterlimit="10" stroke-dasharray="4.9862,4.9862" x1="62.711" y1="1726.334" x2="548.87" y2="1726.334"/>
		<line fill="none" stroke="#CCCCCC" stroke-miterlimit="10" x1="551.363" y1="1726.334" x2="553.863" y2="1726.334"/>
	</g>
	<g style="opacity:0.8;">
		<line fill="none" stroke="#CCCCCC" stroke-miterlimit="10" x1="55" y1="1618.152" x2="57.5" y2="1618.152"/>
		
			<line fill="none" stroke="#CCCCCC" stroke-miterlimit="10" stroke-dasharray="4.9806,4.9806" x1="62.481" y1="1618.152" x2="548.085" y2="1618.152"/>
		<line fill="none" stroke="#CCCCCC" stroke-miterlimit="10" x1="550.576" y1="1618.152" x2="553.076" y2="1618.152"/>
	</g>
	<g style="opacity:0.8;">
		<line fill="none" stroke="#CCCCCC" stroke-miterlimit="10" x1="55.847" y1="1509.97" x2="58.347" y2="1509.97"/>
		
			<line fill="none" stroke="#CCCCCC" stroke-miterlimit="10" stroke-dasharray="4.9806,4.9806" x1="260" y1="1509.97" x2="548.932" y2="1509.97"/>
		<line fill="none" stroke="#CCCCCC" stroke-miterlimit="10" x1="551.423" y1="1509.97" x2="553.923" y2="1509.97"/>
	</g>
	
	
	
	
	
	
	
	
	
	
	
	
	
	
	
	
	
	
	
	
	
	
	
	
	
	
	<g>
		<path fill="#FFB342" d="M67.645,1834.619H55.681v-29.57c0-2.969,0.893-5.376,1.994-5.376h7.976c1.101,0,1.994,2.407,1.994,5.376
			V1834.619z"/>
		<path fill="#FFB342" d="M107.524,1834.619H95.56v-59.14c0-2.969,0.893-5.376,1.994-5.376h7.976c1.101,0,1.994,2.407,1.994,5.376
			V1834.619z"/>
		<path fill="#FFB342" d="M147.402,1834.619h-11.964v-99.463c0-2.969,0.893-5.376,1.994-5.376h7.976
			c1.101,0,1.994,2.407,1.994,5.376V1834.619z"/>
		<path fill="#FFB342" d="M187.281,1834.619h-11.964v-233.872c0-2.969,0.893-5.376,1.994-5.376h7.976
			c1.101,0,1.994,2.407,1.994,5.376V1834.619z"/>
		<path fill="#FFB342" d="M227.16,1834.619h-11.964v-131.721c0-2.969,0.893-5.376,1.994-5.376h7.976
			c1.101,0,1.994,2.407,1.994,5.376V1834.619z"/>
		<path fill="#FFB342" d="M267.038,1834.619h-11.964v-91.398c0-2.969,0.893-5.376,1.994-5.376h7.976
			c1.101,0,1.994,2.407,1.994,5.376V1834.619z"/>
		<path fill="#FFB342" d="M307.914,1834.619H295.95v-59.14c0-2.969,0.893-5.376,1.994-5.376h7.976c1.101,0,1.994,2.407,1.994,5.376
			V1834.619z"/>
		<path fill="#FFB342" d="M347.792,1834.619h-11.964v-99.463c0-2.969,0.893-5.376,1.994-5.376h7.976
			c1.101,0,1.994,2.407,1.994,5.376V1834.619z"/>
		<path fill="#FFB342" d="M387.671,1834.619h-11.964v-83.334c0-2.969,0.893-5.376,1.994-5.376h7.976
			c1.101,0,1.994,2.407,1.994,5.376V1834.619z"/>
		<path fill="#FFB342" d="M427.55,1834.619h-11.964v-123.656c0-2.969,0.893-5.376,1.994-5.376h7.976
			c1.101,0,1.994,2.407,1.994,5.376V1834.619z"/>
		<path fill="#FFB342" d="M467.428,1834.619h-11.964v-147.85c0-2.969,0.893-5.376,1.994-5.376h7.976
			c1.101,0,1.994,2.407,1.994,5.376V1834.619z"/>
		<path fill="#FFB342" d="M507.307,1834.619h-11.964v-94.086c0-2.969,0.893-5.376,1.994-5.376h7.976
			c1.101,0,1.994,2.407,1.994,5.376V1834.619z"/>
		<path fill="#FFB342" d="M547.186,1834.619h-11.964v-51.075c0-2.969,0.893-5.376,1.994-5.376h7.976
			c1.101,0,1.994,2.407,1.994,5.376V1834.619z"/>
	</g>
	<g>
		<path fill="#46BDC6" d="M80.576,1834.619H68.615v-83.334c0-2.969,0.893-5.376,1.993-5.376h7.974c1.101,0,1.993,2.407,1.993,5.376
			V1834.619z"/>
		<path fill="#46BDC6" d="M120.445,1834.619h-11.961v-174.732c0-2.969,0.893-5.376,1.993-5.376h7.974
			c1.101,0,1.993,2.407,1.993,5.376V1834.619z"/>
		<path fill="#46BDC6" d="M160.314,1834.619h-11.961v-220.431c0-2.969,0.893-5.376,1.993-5.376h7.974
			c1.101,0,1.993,2.407,1.993,5.376V1834.619z"/>
		<path fill="#46BDC6" d="M200.183,1834.619h-11.961v-206.99c0-2.969,0.893-5.376,1.993-5.376h7.974
			c1.101,0,1.993,2.407,1.993,5.376V1834.619z"/>
		<path fill="#46BDC6" d="M240.052,1834.619h-11.961v-137.097c0-2.969,0.893-5.376,1.993-5.376h7.974
			c1.101,0,1.993,2.407,1.993,5.376V1834.619z"/>
		<path fill="#46BDC6" d="M279.921,1834.619H267.96v-53.764c0-2.969,0.892-5.376,1.993-5.376h7.974c1.101,0,1.993,2.407,1.993,5.376
			V1834.619z"/>
		<path fill="#46BDC6" d="M320.786,1834.619h-11.961v-64.516c0-2.969,0.892-5.376,1.993-5.376h7.974
			c1.101,0,1.993,2.407,1.993,5.376V1834.619z"/>
		<path fill="#46BDC6" d="M360.655,1834.619h-11.961v-48.387c0-2.969,0.892-5.376,1.993-5.376h7.974
			c1.101,0,1.993,2.407,1.993,5.376V1834.619z"/>
		<path fill="#46BDC6" d="M400.524,1834.619h-11.961v-67.204c0-2.969,0.892-5.376,1.993-5.376h7.974
			c1.101,0,1.993,2.407,1.993,5.376V1834.619z"/>
		<path fill="#46BDC6" d="M440.393,1834.619h-11.961v-99.463c0-2.969,0.892-5.376,1.993-5.376h7.974
			c1.101,0,1.993,2.407,1.993,5.376V1834.619z"/>
		<path fill="#46BDC6" d="M480.262,1834.619h-11.961V1670.64c0-2.969,0.892-5.376,1.993-5.376h7.974
			c1.101,0,1.993,2.407,1.993,5.376V1834.619z"/>
		<path fill="#46BDC6" d="M520.131,1834.619H508.17v-150.538c0-2.969,0.893-5.376,1.993-5.376h7.974
			c1.101,0,1.993,2.407,1.993,5.376V1834.619z"/>
		<path fill="#46BDC6" d="M560,1834.619h-11.961v-83.334c0-2.969,0.893-5.376,1.993-5.376h7.974c1.101,0,1.993,2.407,1.993,5.376
			V1834.619z"/>
	</g>
	<!-- <rect x="27.025" y="143.117" fill="none" stroke="#EFEFEF" stroke-miterlimit="10" width="544.226" height="283.497"/> -->
	<!-- <rect x="108.557" y="1096.675" fill="none" stroke="#EFEFEF" stroke-miterlimit="10" width="392.603" height="361.362"/> -->
	<g>
		<g>
			<g>
				<line fill="none" stroke="#676767" stroke-miterlimit="10" x1="62.61" y1="1026.834" x2="62.61" y2="1030.897"/>
				<line fill="none" stroke="#676767" stroke-miterlimit="10" x1="114.219" y1="1026.803" x2="114.219" y2="1030.866"/>
				<line fill="none" stroke="#676767" stroke-miterlimit="10" x1="154.016" y1="1026.772" x2="154.016" y2="1030.835"/>
				<line fill="none" stroke="#676767" stroke-miterlimit="10" x1="193.893" y1="1026.74" x2="193.893" y2="1030.804"/>
			</g>
			<g>
				<line fill="none" stroke="#676767" stroke-miterlimit="10" x1="392.121" y1="1026.834" x2="392.121" y2="1030.897"/>
				<line fill="none" stroke="#676767" stroke-miterlimit="10" x1="431.73" y1="1026.803" x2="431.73" y2="1030.866"/>
				<line fill="none" stroke="#676767" stroke-miterlimit="10" x1="471.528" y1="1026.772" x2="471.528" y2="1030.835"/>
				<line fill="none" stroke="#676767" stroke-miterlimit="10" x1="511.404" y1="1026.74" x2="511.404" y2="1030.804"/>
			</g>
			<line fill="none" stroke="#676767" stroke-miterlimit="10" x1="559.9" y1="1026.361" x2="559.9" y2="1030.721"/>
			<g>
				<line fill="none" stroke="#676767" stroke-miterlimit="10" x1="233.458" y1="1026.668" x2="233.458" y2="1030.731"/>
				<line fill="none" stroke="#676767" stroke-miterlimit="10" x1="273.067" y1="1026.636" x2="273.067" y2="1030.699"/>
				<line fill="none" stroke="#676767" stroke-miterlimit="10" x1="312.864" y1="1026.605" x2="312.864" y2="1030.668"/>
				<line fill="none" stroke="#676767" stroke-miterlimit="10" x1="352.741" y1="1026.574" x2="352.741" y2="1030.637"/>
			</g>
		</g>
	</g>
	<g>
		<g>
			
				<line fill="none" stroke="#CCCCCC" stroke-width="0.5" stroke-linejoin="round" stroke-miterlimit="10" x1="68.405" y1="1835.006" x2="68.405" y2="1839.069"/>
			
				<line fill="none" stroke="#CCCCCC" stroke-width="0.5" stroke-linejoin="round" stroke-miterlimit="10" x1="108.234" y1="1834.975" x2="108.234" y2="1839.038"/>
			
				<line fill="none" stroke="#CCCCCC" stroke-width="0.5" stroke-linejoin="round" stroke-miterlimit="10" x1="148.252" y1="1834.943" x2="148.252" y2="1839.006"/>
			
				<line fill="none" stroke="#CCCCCC" stroke-width="0.5" stroke-linejoin="round" stroke-miterlimit="10" x1="188.349" y1="1834.912" x2="188.349" y2="1838.975"/>
		</g>
		<g>
			
				<line fill="none" stroke="#CCCCCC" stroke-width="0.5" stroke-linejoin="round" stroke-miterlimit="10" x1="387.675" y1="1835.006" x2="387.675" y2="1839.069"/>
			
				<line fill="none" stroke="#CCCCCC" stroke-width="0.5" stroke-linejoin="round" stroke-miterlimit="10" x1="427.503" y1="1834.975" x2="427.503" y2="1839.038"/>
			
				<line fill="none" stroke="#CCCCCC" stroke-width="0.5" stroke-linejoin="round" stroke-miterlimit="10" x1="467.522" y1="1834.943" x2="467.522" y2="1839.006"/>
			
				<line fill="none" stroke="#CCCCCC" stroke-width="0.5" stroke-linejoin="round" stroke-miterlimit="10" x1="507.619" y1="1834.912" x2="507.619" y2="1838.975"/>
		</g>
		
			<line fill="none" stroke="#CCCCCC" stroke-width="0.5" stroke-linejoin="round" stroke-miterlimit="10" x1="547.333" y1="1834.86" x2="547.333" y2="1838.923"/>
		<g>
			
				<line fill="none" stroke="#CCCCCC" stroke-width="0.5" stroke-linejoin="round" stroke-miterlimit="10" x1="228.133" y1="1834.839" x2="228.133" y2="1838.902"/>
			
				<line fill="none" stroke="#CCCCCC" stroke-width="0.5" stroke-linejoin="round" stroke-miterlimit="10" x1="267.961" y1="1834.808" x2="267.961" y2="1838.871"/>
			
				<line fill="none" stroke="#CCCCCC" stroke-width="0.5" stroke-linejoin="round" stroke-miterlimit="10" x1="307.979" y1="1834.777" x2="307.98" y2="1838.84"/>
			
				<line fill="none" stroke="#CCCCCC" stroke-width="0.5" stroke-linejoin="round" stroke-miterlimit="10" x1="348.077" y1="1834.745" x2="348.077" y2="1838.808"/>
		</g>
	</g>
</g>
<style>
#g-aid-trends-600-img rect, #g-aid-trends-600-img circle, #g-aid-trends-600-img path, #g-aid-trends-600-img line, #g-aid-trends-600-img polyline { vector-effect: non-scaling-stroke; }
</style>
</svg>

