<?xml version="1.0" encoding="utf-8"?>
<!-- Generator: Adobe Illustrator 23.1.1, SVG Export Plug-In . SVG Version: 6.00 Build 0)  -->
<svg version="1.2" baseProfile="tiny" id="g-aid-trends-1200-img" xmlns="http://www.w3.org/2000/svg" xmlns:xlink="http://www.w3.org/1999/xlink"
	 x="0px" y="0px" viewBox="0 0 1200 1270" xml:space="preserve">
<g>
	<g style="opacity:0.8;">
		<line fill="none" stroke="#CCCCCC" stroke-miterlimit="10" x1="75.168" y1="1071.99" x2="77.668" y2="1071.99"/>
		
			<line fill="none" stroke="#CCCCCC" stroke-miterlimit="10" stroke-dasharray="4.9856,4.9856" x1="82.653" y1="1071.99" x2="718.313" y2="1071.99"/>
		<line fill="none" stroke="#CCCCCC" stroke-miterlimit="10" x1="720.806" y1="1071.99" x2="723.306" y2="1071.99"/>
	</g>
	<g style="opacity:0.8;">
		<line fill="none" stroke="#CCCCCC" stroke-miterlimit="10" x1="74.876" y1="921.792" x2="77.376" y2="921.792"/>
		
			<line fill="none" stroke="#CCCCCC" stroke-miterlimit="10" stroke-dasharray="4.9799,4.9799" x1="82.356" y1="921.792" x2="717.292" y2="921.792"/>
		<line fill="none" stroke="#CCCCCC" stroke-miterlimit="10" x1="719.782" y1="921.792" x2="722.282" y2="921.792"/>
	</g>
	<g style="opacity:0.8;">
		<line fill="none" stroke="#CCCCCC" stroke-miterlimit="10" x1="326.932" y1="771.594" x2="329.432" y2="771.594"/>
		
			<line fill="none" stroke="#CCCCCC" stroke-miterlimit="10" stroke-dasharray="4.9551,4.9551" x1="334.387" y1="771.594" x2="718.405" y2="771.594"/>
		<line fill="none" stroke="#CCCCCC" stroke-miterlimit="10" x1="720.883" y1="771.594" x2="723.383" y2="771.594"/>
	</g>
	
	
	
	
	
	
	
	
	
	
	
	
	
	
	
	
	
	
	
	
	
	
	
	
	
	
	<g>
		<path fill="#FFB342" d="M91.312,1222.332h-15.55v-41.055c0-4.123,1.16-7.464,2.592-7.464H88.72c1.431,0,2.592,3.342,2.592,7.464
			V1222.332z"/>
		<path fill="#FFB342" d="M143.146,1222.332h-15.55v-82.109c0-4.123,1.16-7.464,2.592-7.464h10.367c1.431,0,2.592,3.342,2.592,7.464
			V1222.332z"/>
		<path fill="#FFB342" d="M194.981,1222.332h-15.55v-138.093c0-4.123,1.16-7.464,2.592-7.464h10.367
			c1.431,0,2.592,3.342,2.592,7.464V1222.332z"/>
		<path fill="#FFB342" d="M246.816,1222.332h-15.55V897.628c0-4.122,1.16-7.464,2.592-7.464h10.367c1.431,0,2.592,3.342,2.592,7.464
			V1222.332z"/>
		<path fill="#FFB342" d="M298.651,1222.332h-15.55v-182.879c0-4.123,1.16-7.464,2.592-7.464h10.367
			c1.431,0,2.592,3.342,2.592,7.464V1222.332z"/>
		<path fill="#FFB342" d="M350.486,1222.332h-15.55v-126.896c0-4.123,1.16-7.464,2.592-7.464h10.367
			c1.431,0,2.592,3.342,2.592,7.464V1222.332z"/>
		<path fill="#FFB342" d="M403.617,1222.332h-15.55v-82.109c0-4.123,1.16-7.464,2.592-7.464h10.367c1.431,0,2.592,3.342,2.592,7.464
			V1222.332z"/>
		<path fill="#FFB342" d="M455.452,1222.332h-15.55v-138.093c0-4.123,1.16-7.464,2.592-7.464h10.367
			c1.431,0,2.592,3.342,2.592,7.464V1222.332z"/>
		<path fill="#FFB342" d="M507.287,1222.332h-15.55v-115.699c0-4.123,1.16-7.464,2.592-7.464h10.367
			c1.431,0,2.592,3.342,2.592,7.464V1222.332z"/>
		<path fill="#FFB342" d="M559.121,1222.332h-15.55v-171.683c0-4.123,1.16-7.464,2.592-7.464h10.367
			c1.431,0,2.592,3.342,2.592,7.464V1222.332z"/>
		<path fill="#FFB342" d="M610.956,1222.332h-15.55v-205.273c0-4.123,1.16-7.464,2.592-7.464h10.367
			c1.431,0,2.592,3.342,2.592,7.464V1222.332z"/>
		<path fill="#FFB342" d="M662.791,1222.332h-15.55v-130.628c0-4.123,1.16-7.464,2.592-7.464h10.367
			c1.431,0,2.592,3.342,2.592,7.464V1222.332z"/>
		<path fill="#FFB342" d="M714.626,1222.332h-15.55v-70.912c0-4.123,1.16-7.464,2.592-7.464h10.367c1.431,0,2.592,3.342,2.592,7.464
			V1222.332z"/>
	</g>
	<g>
		<path fill="#46BDC6" d="M108.12,1222.332H92.573v-115.699c0-4.123,1.16-7.464,2.591-7.464h10.364c1.431,0,2.591,3.342,2.591,7.464
			V1222.332z"/>
		<path fill="#46BDC6" d="M159.942,1222.332h-15.547V979.737c0-4.123,1.16-7.464,2.591-7.464h10.364
			c1.431,0,2.591,3.342,2.591,7.464V1222.332z"/>
		<path fill="#46BDC6" d="M211.764,1222.332h-15.547V916.289c0-4.122,1.16-7.464,2.591-7.464h10.364
			c1.431,0,2.591,3.342,2.591,7.464V1222.332z"/>
		<path fill="#46BDC6" d="M263.586,1222.332H248.04V934.95c0-4.122,1.16-7.464,2.591-7.464h10.364c1.431,0,2.591,3.342,2.591,7.464
			V1222.332z"/>
		<path fill="#46BDC6" d="M315.409,1222.332h-15.547v-190.344c0-4.123,1.16-7.464,2.591-7.464h10.364
			c1.431,0,2.591,3.342,2.591,7.464V1222.332z"/>
		<path fill="#46BDC6" d="M367.231,1222.332h-15.547v-74.645c0-4.123,1.16-7.464,2.591-7.464h10.364
			c1.431,0,2.591,3.342,2.591,7.464V1222.332z"/>
		<path fill="#46BDC6" d="M420.349,1222.332h-15.547v-89.574c0-4.123,1.16-7.464,2.591-7.464h10.364
			c1.431,0,2.591,3.342,2.591,7.464V1222.332z"/>
		<path fill="#46BDC6" d="M472.171,1222.332h-15.547v-67.18c0-4.123,1.16-7.464,2.591-7.464h10.364c1.431,0,2.591,3.342,2.591,7.464
			V1222.332z"/>
		<path fill="#46BDC6" d="M523.993,1222.332h-15.547v-93.306c0-4.123,1.16-7.464,2.591-7.464h10.364
			c1.431,0,2.591,3.342,2.591,7.464V1222.332z"/>
		<path fill="#46BDC6" d="M575.815,1222.332h-15.547v-138.093c0-4.123,1.16-7.464,2.591-7.464h10.364
			c1.431,0,2.591,3.342,2.591,7.464V1222.332z"/>
		<path fill="#46BDC6" d="M627.638,1222.332h-15.547V994.666c0-4.123,1.16-7.464,2.591-7.464h10.364
			c1.431,0,2.591,3.342,2.591,7.464V1222.332z"/>
		<path fill="#46BDC6" d="M679.46,1222.332h-15.547v-209.005c0-4.123,1.16-7.464,2.591-7.464h10.364
			c1.431,0,2.591,3.342,2.591,7.464V1222.332z"/>
		<path fill="#46BDC6" d="M731.282,1222.332h-15.547v-115.699c0-4.123,1.16-7.464,2.591-7.464h10.364
			c1.431,0,2.591,3.342,2.591,7.464V1222.332z"/>
	</g>
	<g style="opacity:0.8;">
		<line fill="none" stroke="#CCCCCC" stroke-miterlimit="10" x1="657.387" y1="579.408" x2="659.887" y2="579.408"/>
		
			<line fill="none" stroke="#CCCCCC" stroke-miterlimit="10" stroke-dasharray="4.9541,4.9541" x1="664.841" y1="579.408" x2="1147.866" y2="579.408"/>
		<line fill="none" stroke="#CCCCCC" stroke-miterlimit="10" x1="1150.343" y1="579.408" x2="1152.843" y2="579.408"/>
	</g>
	<g style="opacity:0.8;">
		<line fill="none" stroke="#CCCCCC" stroke-miterlimit="10" x1="657.164" y1="489.476" x2="659.664" y2="489.476"/>
		
			<line fill="none" stroke="#CCCCCC" stroke-miterlimit="10" stroke-dasharray="5.0505,5.0505" x1="664.714" y1="489.476" x2="1147.036" y2="489.476"/>
		<line fill="none" stroke="#CCCCCC" stroke-miterlimit="10" x1="1149.561" y1="489.476" x2="1152.061" y2="489.476"/>
	</g>
	<g style="opacity:0.8;">
		<line fill="none" stroke="#CCCCCC" stroke-miterlimit="10" x1="656.605" y1="399.545" x2="659.105" y2="399.545"/>
		
			<line fill="none" stroke="#CCCCCC" stroke-miterlimit="10" stroke-dasharray="4.9541,4.9541" x1="664.059" y1="399.545" x2="1147.084" y2="399.545"/>
		<line fill="none" stroke="#CCCCCC" stroke-miterlimit="10" x1="1149.561" y1="399.545" x2="1152.061" y2="399.545"/>
	</g>
	<g style="opacity:0.8;">
		<line fill="none" stroke="#CCCCCC" stroke-miterlimit="10" x1="656.605" y1="309.613" x2="659.105" y2="309.613"/>
		
			<line fill="none" stroke="#CCCCCC" stroke-miterlimit="10" stroke-dasharray="4.9541,4.9541" x1="664.059" y1="309.613" x2="1147.084" y2="309.613"/>
		<line fill="none" stroke="#CCCCCC" stroke-miterlimit="10" x1="1149.561" y1="309.613" x2="1152.061" y2="309.613"/>
	</g>
	<g style="opacity:0.8;">
		<line fill="none" stroke="#CCCCCC" stroke-miterlimit="10" x1="657.164" y1="219.682" x2="659.664" y2="219.682"/>
		
			<line fill="none" stroke="#CCCCCC" stroke-miterlimit="10" stroke-dasharray="5.0505,5.0505" x1="664.714" y1="219.682" x2="1147.036" y2="219.682"/>
		<line fill="none" stroke="#CCCCCC" stroke-miterlimit="10" x1="1149.561" y1="219.682" x2="1152.061" y2="219.682"/>
	</g>
	<g style="opacity:0.8;">
		<line fill="none" stroke="#CCCCCC" stroke-miterlimit="10" x1="751.613" y1="130.747" x2="754.113" y2="130.747"/>
		
			<line fill="none" stroke="#CCCCCC" stroke-miterlimit="10" stroke-dasharray="5.0057,5.0057" x1="759.118" y1="130.747" x2="1147.058" y2="130.747"/>
		<line fill="none" stroke="#CCCCCC" stroke-miterlimit="10" x1="1149.561" y1="130.747" x2="1152.061" y2="130.747"/>
	</g>
	<polyline fill="none" stroke="#ADDEE6" stroke-width="3" stroke-miterlimit="10" points="670.235,208.951 709.978,185.564 
		749.722,159.803 789.466,165.552 829.209,164.752 868.953,173.211 908.696,172.108 948.44,183.59 988.184,186.766 1027.927,192.25 
		1067.671,188.973 1107.415,177.098 1147.158,169.741 	"/>
	<line fill="none" stroke="#676767" stroke-miterlimit="10" x1="74.968" y1="1222.342" x2="731.282" y2="1222.342"/>
	<line fill="none" stroke="#676767" stroke-miterlimit="10" x1="670.738" y1="668.931" x2="1144.742" y2="668.931"/>
	<!--<rect x="763.66" y="796.201" fill="none" stroke="#EFEFEF" stroke-miterlimit="10" width="392.603" height="368"/> -->
	<g>
		<g>
			<line fill="none" stroke="#676767" stroke-miterlimit="10" x1="670.738" y1="668.931" x2="670.738" y2="673.996"/>
			<line fill="none" stroke="#676767" stroke-miterlimit="10" x1="710.157" y1="668.892" x2="710.157" y2="673.957"/>
			<line fill="none" stroke="#676767" stroke-miterlimit="10" x1="749.763" y1="668.853" x2="749.763" y2="673.919"/>
			<line fill="none" stroke="#676767" stroke-miterlimit="10" x1="789.448" y1="668.814" x2="789.448" y2="673.88"/>
		</g>
		<g>
			<line fill="none" stroke="#676767" stroke-miterlimit="10" x1="986.725" y1="668.931" x2="986.725" y2="673.996"/>
			<line fill="none" stroke="#676767" stroke-miterlimit="10" x1="1026.144" y1="668.892" x2="1026.144" y2="673.957"/>
			<line fill="none" stroke="#676767" stroke-miterlimit="10" x1="1065.751" y1="668.853" x2="1065.751" y2="673.919"/>
			<line fill="none" stroke="#676767" stroke-miterlimit="10" x1="1105.436" y1="668.814" x2="1105.436" y2="673.88"/>
		</g>
		<line fill="none" stroke="#676767" stroke-miterlimit="10" x1="1144.742" y1="668.413" x2="1144.742" y2="673.815"/>
		<g>
			<line fill="none" stroke="#676767" stroke-miterlimit="10" x1="828.823" y1="668.724" x2="828.823" y2="673.789"/>
			<line fill="none" stroke="#676767" stroke-miterlimit="10" x1="868.242" y1="668.685" x2="868.242" y2="673.75"/>
			<line fill="none" stroke="#676767" stroke-miterlimit="10" x1="907.849" y1="668.646" x2="907.849" y2="673.711"/>
			<line fill="none" stroke="#676767" stroke-miterlimit="10" x1="947.534" y1="668.607" x2="947.534" y2="673.672"/>
		</g>
	</g>
	<g>
		<g>
			
				<line fill="none" stroke="#676767" stroke-width="0.5" stroke-miterlimit="10" x1="93.248" y1="1222.881" x2="93.248" y2="1226.944"/>
			
				<line fill="none" stroke="#676767" stroke-width="0.5" stroke-miterlimit="10" x1="144.843" y1="1222.85" x2="144.843" y2="1226.913"/>
			
				<line fill="none" stroke="#676767" stroke-width="0.5" stroke-miterlimit="10" x1="196.683" y1="1222.819" x2="196.683" y2="1226.882"/>
			
				<line fill="none" stroke="#676767" stroke-width="0.5" stroke-miterlimit="10" x1="248.626" y1="1222.788" x2="248.626" y2="1226.851"/>
		</g>
		<g>
			
				<line fill="none" stroke="#676767" stroke-width="0.5" stroke-miterlimit="10" x1="506.838" y1="1222.881" x2="506.838" y2="1226.944"/>
			
				<line fill="none" stroke="#676767" stroke-width="0.5" stroke-miterlimit="10" x1="558.433" y1="1222.85" x2="558.433" y2="1226.913"/>
			
				<line fill="none" stroke="#676767" stroke-width="0.5" stroke-miterlimit="10" x1="610.273" y1="1222.819" x2="610.273" y2="1226.882"/>
			
				<line fill="none" stroke="#676767" stroke-width="0.5" stroke-miterlimit="10" x1="662.216" y1="1222.788" x2="662.216" y2="1226.851"/>
		</g>
		
			<line fill="none" stroke="#676767" stroke-width="0.5" stroke-miterlimit="10" x1="713.663" y1="1222.735" x2="713.663" y2="1226.798"/>
		<g>
			
				<line fill="none" stroke="#676767" stroke-width="0.5" stroke-miterlimit="10" x1="300.163" y1="1222.715" x2="300.163" y2="1226.778"/>
			
				<line fill="none" stroke="#676767" stroke-width="0.5" stroke-miterlimit="10" x1="351.758" y1="1222.683" x2="351.758" y2="1226.746"/>
			
				<line fill="none" stroke="#676767" stroke-width="0.5" stroke-miterlimit="10" x1="403.598" y1="1222.652" x2="403.598" y2="1226.715"/>
			
				<line fill="none" stroke="#676767" stroke-width="0.5" stroke-miterlimit="10" x1="455.541" y1="1222.621" x2="455.541" y2="1226.684"/>
		</g>
	</g>
	<!-- <rect x="50.542" y="256.35" fill="none" stroke="#EFEFEF" stroke-miterlimit="10" width="528.799" height="295"/> -->
</g>
<style>
#g-aid-trends-1200-img rect, #g-aid-trends-1200-img circle, #g-aid-trends-1200-img path, #g-aid-trends-1200-img line, #g-aid-trends-1200-img polyline { vector-effect: non-scaling-stroke; }
</style>
</svg>

