<?xml version="1.0" encoding="utf-8"?>
<!-- Generator: Adobe Illustrator 23.1.1, SVG Export Plug-In . SVG Version: 6.00 Build 0)  -->
<svg version="1.2" baseProfile="tiny" id="g-pie-600-img" xmlns="http://www.w3.org/2000/svg" xmlns:xlink="http://www.w3.org/1999/xlink"
	 x="0px" y="0px" viewBox="0 0 600 850" xml:space="preserve">
<g>
	<path fill="#02A9C0" d="M200.861,372.766c4.988-20.083,16.563-37.927,32.867-50.669s36.416-19.663,57.109-19.652l-0.052,92.656
		L200.861,372.766z"/>
	<path style="opacity:0.8;" fill="#FF9900" d="M296.542,309.745c11.958,0.007,23.802,2.328,34.877,6.836
		s21.174,11.117,29.738,19.462l-64.666,66.358L296.542,309.745z"/>
	<path style="opacity:0.6;" fill="#CCCCCC" d="M361.157,336.043c11.632,11.336,20.082,25.533,24.498,41.163
		c4.416,15.63,4.647,32.15,0.667,47.897c-3.979,15.747-12.03,30.174-23.342,41.829c-11.312,11.655-25.492,20.134-41.113,24.582
		c-15.621,4.448-32.14,4.712-47.895,0.765c-15.755-3.947-30.198-11.969-41.877-23.257c-11.678-11.288-20.186-25.451-24.666-41.062
		c-4.48-15.612-4.778-32.13-0.863-47.893l89.924,22.335L361.157,336.043z"/>
	<path fill="#02A9C0" d="M115.735,582.72c2.549-7.931,7.558-14.848,14.297-19.746c6.739-4.897,14.865-7.525,23.196-7.501
		l-0.114,39.262L115.735,582.72z"/>
	<path style="opacity:0.8;" fill="#FF9900" d="M155.536,558.649c7.18,0.021,14.219,2.011,20.347,5.753
		c6.128,3.742,11.114,9.094,14.412,15.472c3.299,6.378,4.785,13.54,4.297,20.704c-0.488,7.164-2.931,14.058-7.064,19.93
		l-32.107-22.597L155.536,558.649z"/>
	<path style="opacity:0.6;" fill="#CCCCCC" d="M187.529,620.508c-5.402,7.676-13.382,13.165-22.482,15.467
		c-9.1,2.301-18.73,1.265-27.131-2.92s-15.03-11.247-18.675-19.897c-3.645-8.65-4.07-18.326-1.198-27.262l37.378,12.015
		L187.529,620.508z"/>
	<path fill="#02A9C0" d="M278.937,563.534c3.231-2.234,6.781-3.968,10.53-5.143c3.748-1.176,7.652-1.779,11.581-1.791l0.117,39.09
		L278.937,563.534z"/>
	<path style="opacity:0.8;" fill="#FF9900" d="M302.217,560.329c7.191-0.022,14.251,1.942,20.399,5.673
		c6.148,3.731,11.148,9.088,14.448,15.477c3.3,6.389,4.774,13.567,4.259,20.74s-3,14.066-7.18,19.918l-31.81-22.719L302.217,560.329
		z"/>
	<path style="opacity:0.6;" fill="#CCCCCC" d="M334.144,622.138c-3.314,4.64-7.604,8.5-12.568,11.307
		c-4.964,2.807-10.482,4.494-16.167,4.943c-5.685,0.449-11.399-0.352-16.742-2.346c-5.342-1.994-10.185-5.132-14.186-9.195
		c-4.001-4.063-7.065-8.953-8.976-14.325s-2.624-11.099-2.088-16.776s2.308-11.169,5.191-16.089
		c2.883-4.92,6.808-9.15,11.499-12.392l22.227,32.155L334.144,622.138z"/>
	<path fill="#02A9C0" d="M424.812,564.825c2.647-1.285,5.431-2.267,8.298-2.927c2.867-0.66,5.8-0.994,8.743-0.995l0.018,39.057
		L424.812,564.825z"/>
	<path style="opacity:0.8;" fill="#FF9900" d="M442.729,564.709c5.669-0.003,11.27,1.229,16.415,3.609
		c5.145,2.38,9.71,5.852,13.379,10.173s6.352,9.391,7.865,14.854c1.512,5.463,1.818,11.191,0.894,16.784
		c-0.923,5.593-3.053,10.918-6.242,15.605s-7.359,8.624-12.222,11.537c-4.863,2.913-10.302,4.733-15.939,5.333
		s-11.337-0.035-16.704-1.859l12.572-36.979L442.729,564.709z"/>
	<path style="opacity:0.6;" fill="#CCCCCC" d="M430.175,640.745c-7.331-2.492-13.757-7.109-18.459-13.261
		c-4.702-6.152-7.47-13.565-7.951-21.293c-0.481-7.728,1.347-15.427,5.25-22.114s9.708-12.065,16.673-15.447l17.058,35.135
		L430.175,640.745z"/>
	<path fill="#02A9C0" d="M466.816,718.214c3.383-6.126,8.349-11.234,14.377-14.789c6.028-3.555,12.901-5.429,19.899-5.425
		l-0.021,39.133L466.816,718.214z"/>
	<path style="opacity:0.8;" fill="#FF9900" d="M503.08,701.372c3.959,0.002,7.895,0.605,11.674,1.788s7.355,2.933,10.609,5.189
		l-22.303,32.156L503.08,701.372z"/>
	<path style="opacity:0.6;" fill="#CCCCCC" d="M525.362,708.349c6.22,4.314,11.056,10.341,13.921,17.348
		c2.864,7.007,3.635,14.696,2.218,22.132c-1.417,7.436-4.961,14.303-10.201,19.766s-11.954,9.289-19.324,11.014
		c-7.37,1.725-15.085,1.275-22.205-1.295c-7.12-2.57-13.343-7.152-17.912-13.187c-4.569-6.035-7.291-13.268-7.833-20.818
		c-0.542-7.55,1.117-15.098,4.777-21.724l34.256,18.92L525.362,708.349z"/>
	<path fill="#02A9C0" d="M71.106,708.467c3.604-3.454,7.835-6.188,12.465-8.054c4.63-1.867,9.574-2.832,14.566-2.843l0.092,39.201
		L71.106,708.467z"/>
	<path style="opacity:0.8;" fill="#FF9900" d="M99.603,701.205c2.241-0.005,4.478,0.182,6.687,0.559
		c2.209,0.377,4.381,0.943,6.493,1.691l-13.088,36.952L99.603,701.205z"/>
	<path style="opacity:0.6;" fill="#CCCCCC" d="M112.783,703.454c3.995,1.415,7.735,3.469,11.073,6.081
		c3.338,2.612,6.23,5.749,8.564,9.287s4.078,7.432,5.165,11.529c1.087,4.097,1.503,8.343,1.23,12.573
		c-0.272,4.23-1.229,8.388-2.832,12.311c-1.603,3.924-3.833,7.561-6.601,10.771c-2.768,3.21-6.039,5.95-9.684,8.113
		c-3.645,2.163-7.617,3.72-11.761,4.612c-4.144,0.891-8.405,1.104-12.617,0.632c-4.212-0.473-8.32-1.626-12.163-3.414
		s-7.371-4.188-10.445-7.105c-3.075-2.917-5.656-6.314-7.643-10.058c-1.987-3.744-3.354-7.786-4.047-11.967
		c-0.693-4.182-0.704-8.448-0.031-12.633c0.673-4.185,2.02-8.233,3.988-11.987c1.969-3.754,4.533-7.163,7.594-10.096l27.123,28.304
		L112.783,703.454z"/>
	<path fill="#02A9C0" d="M182.515,727.667c2.03-8.659,6.933-16.381,13.906-21.901c6.973-5.52,15.614-8.52,24.508-8.509
		l-0.052,39.402L182.515,727.667z"/>
	<path style="opacity:0.8;" fill="#FF9900" d="M223.374,700.347c10.278,0.013,20.153,4.048,27.501,11.235
		c7.347,7.187,11.599,16.971,11.839,27.246l-39.391,0.921L223.374,700.347z"/>
	<path style="opacity:0.6;" fill="#CCCCCC" d="M262.714,738.828c0.131,5.593-0.931,11.151-3.115,16.302s-5.44,9.778-9.552,13.573
		c-4.111,3.795-8.984,6.671-14.293,8.436s-10.934,2.379-16.499,1.802c-5.565-0.578-10.944-2.334-15.777-5.152
		c-4.833-2.818-9.012-6.633-12.256-11.192s-5.481-9.756-6.56-15.245c-1.079-5.49-0.977-11.147,0.299-16.594l38.362,8.992
		L262.714,738.828z"/>
	<path fill="#02A9C0" d="M332.917,759.848c-4.131-6.007-6.538-13.032-6.959-20.31c-0.421-7.278,1.16-14.534,4.57-20.977
		s8.521-11.831,14.776-15.576c6.255-3.745,13.418-5.705,20.708-5.668l-0.205,39.915L332.917,759.848z"/>
	<path style="opacity:0.8;" fill="#FF9900" d="M369.54,699.185c7.265,0.037,14.383,2.057,20.585,5.841
		c6.202,3.784,11.254,9.19,14.611,15.633l-35.4,18.441L369.54,699.185z"/>
	<path style="opacity:0.6;" fill="#CCCCCC" d="M404.735,720.658c4.694,9.012,5.775,19.485,3.02,29.265
		c-2.756,9.78-9.144,18.149-17.853,23.385c-8.709,5.236-19.096,6.953-29.026,4.8c-9.93-2.154-18.673-8.02-24.43-16.393l32.89-22.616
		L404.735,720.658z"/>
</g>
<style>
#g-pie-600-img rect, #g-pie-600-img circle, #g-pie-600-img path, #g-pie-600-img line, #g-pie-600-img polyline { vector-effect: non-scaling-stroke; }
</style>
</svg>

