<?xml version="1.0" encoding="utf-8"?>
<!-- Generator: Adobe Illustrator 23.1.1, SVG Export Plug-In . SVG Version: 6.00 Build 0)  -->
<svg version="1.2" baseProfile="tiny" id="g-revenue-change-1200-img" xmlns="http://www.w3.org/2000/svg" xmlns:xlink="http://www.w3.org/1999/xlink"
	 x="0px" y="0px" viewBox="0 0 1200 702" xml:space="preserve">
<g>
	<g style="opacity:0.8;">
		<line fill="none" stroke="#CBCBCA" stroke-miterlimit="10" x1="214.806" y1="642.211" x2="217.306" y2="642.211"/>
		
			<line fill="none" stroke="#CBCBCA" stroke-miterlimit="10" stroke-dasharray="5.0097,5.0097" x1="222.316" y1="642.211" x2="1051.415" y2="642.211"/>
		<line fill="none" stroke="#CBCBCA" stroke-miterlimit="10" x1="1053.92" y1="642.211" x2="1056.42" y2="642.211"/>
	</g>
	<g style="opacity:0.8;">
		<line fill="none" stroke="#CBCBCA" stroke-miterlimit="10" x1="214.806" y1="551.78" x2="217.306" y2="551.78"/>
		
			<line fill="none" stroke="#CBCBCA" stroke-miterlimit="10" stroke-dasharray="5.0097,5.0097" x1="222.316" y1="551.78" x2="1051.415" y2="551.78"/>
		<line fill="none" stroke="#CBCBCA" stroke-miterlimit="10" x1="1053.92" y1="551.78" x2="1056.42" y2="551.78"/>
	</g>
	<g style="opacity:0.8;">
		<line fill="none" stroke="#CBCBCA" stroke-miterlimit="10" x1="214.806" y1="369.435" x2="217.306" y2="369.435"/>
		
			<line fill="none" stroke="#CBCBCA" stroke-miterlimit="10" stroke-dasharray="5.0097,5.0097" x1="222.316" y1="369.435" x2="1051.415" y2="369.435"/>
		<line fill="none" stroke="#CBCBCA" stroke-miterlimit="10" x1="1053.92" y1="369.435" x2="1056.42" y2="369.435"/>
	</g>
	<g style="opacity:0.8;">
		<line fill="none" stroke="#CBCBCA" stroke-miterlimit="10" x1="214.806" y1="277.521" x2="217.306" y2="277.521"/>
		
			<line fill="none" stroke="#CBCBCA" stroke-miterlimit="10" stroke-dasharray="5.0097,5.0097" x1="222.316" y1="277.521" x2="1051.415" y2="277.521"/>
		<line fill="none" stroke="#CBCBCA" stroke-miterlimit="10" x1="1053.92" y1="277.521" x2="1056.42" y2="277.521"/>
	</g>
	<g style="opacity:0.8;">
		<line fill="none" stroke="#CBCBCA" stroke-miterlimit="10" x1="214.806" y1="187.09" x2="217.306" y2="187.09"/>
		
			<line fill="none" stroke="#CBCBCA" stroke-miterlimit="10" stroke-dasharray="5.0097,5.0097" x1="222.316" y1="187.09" x2="1051.415" y2="187.09"/>
		<line fill="none" stroke="#CBCBCA" stroke-miterlimit="10" x1="1053.92" y1="187.09" x2="1056.42" y2="187.09"/>
	</g>
	
	<path fill="#02A9C0" d="M311.743,460.608h-65.251v-209.03c0-1.637,1.461-2.965,3.263-2.965h58.726c1.802,0,3.263,1.327,3.263,2.965
		V460.608z"/>
	
	<path fill="#ADDEE6" d="M412.882,460.608h-65.251v-54.852c0-1.638,1.461-2.965,3.263-2.965h58.726c1.802,0,3.263,1.327,3.263,2.965
		V460.608z"/>
	
	<path fill="#ADDEE6" d="M514.021,460.608h-65.251v112.668c0,1.638,1.461,2.965,3.263,2.965h58.726c1.802,0,3.263-1.327,3.263-2.965
		V460.608z"/>
	
	<path fill="#ADDEE6" d="M615.16,460.608h-65.251V635.54c0,1.638,1.461,2.965,3.263,2.965h58.726c1.802,0,3.263-1.327,3.263-2.965
		V460.608z"/>
	
	<path fill="#ADDEE6" d="M717.931,460.608H652.68v134.906c0,1.638,1.461,2.965,3.263,2.965h58.726c1.802,0,3.263-1.327,3.263-2.965
		V460.608z"/>
	
	<path fill="#ADDEE6" d="M819.07,460.608h-65.251v-31.132c0-1.637,1.461-2.965,3.263-2.965h58.726c1.802,0,3.263,1.327,3.263,2.965
		V460.608z"/>
	
	<path fill="#ADDEE6" d="M920.209,460.608h-65.251V248.613c0-1.637,1.461-2.965,3.263-2.965h58.726c1.802,0,3.263,1.327,3.263,2.965
		V460.608z"/>
	
	<path fill="#ADDEE6" d="M1021.348,460.608h-65.251V215.999c0-1.637,1.461-2.965,3.263-2.965h58.726
		c1.802,0,3.263,1.327,3.263,2.965V460.608z"/>
	<line fill="none" stroke="#676767" stroke-miterlimit="10" x1="211.42" y1="459.866" x2="1056.42" y2="459.866"/>
</g>
<style>
#g-revenue-change-1200-img rect, #g-revenue-change-1200-img circle, #g-revenue-change-1200-img path, #g-revenue-change-1200-img line, #g-revenue-change-1200-img polyline { vector-effect: non-scaling-stroke; }
</style>
</svg>

