<?xml version="1.0" encoding="utf-8"?>
<!-- Generator: Adobe Illustrator 23.1.1, SVG Export Plug-In . SVG Version: 6.00 Build 0)  -->
<svg version="1.2" baseProfile="tiny" id="g-revenue-change-300-img" xmlns="http://www.w3.org/2000/svg" xmlns:xlink="http://www.w3.org/1999/xlink"
	 x="0px" y="0px" viewBox="0 0 300 570" xml:space="preserve">
<g>
	<g style="opacity:0.8;">
		<line fill="none" stroke="#CBCBCA" stroke-miterlimit="10" x1="35.901" y1="361.027" x2="38.401" y2="361.027"/>
		
			<line fill="none" stroke="#CBCBCA" stroke-miterlimit="10" stroke-dasharray="4.9758,4.9758" x1="43.377" y1="361.027" x2="289.678" y2="361.027"/>
		<line fill="none" stroke="#CBCBCA" stroke-miterlimit="10" x1="292.166" y1="361.027" x2="294.666" y2="361.027"/>
	</g>
	<path style="opacity:0.5;" fill="#FFFFFF" d="M123.842,375.412l-52.68,0.189c-2.387,0.009-4.329-1.92-4.338-4.307l-0.034-9.573
		c-0.009-2.387,1.92-4.329,4.307-4.338l52.68-0.189c2.387-0.009,4.329,1.92,4.338,4.307l0.034,9.573
		C128.157,373.461,126.229,375.403,123.842,375.412z"/>
	<g style="opacity:0.8;">
		<line fill="none" stroke="#CBCBCA" stroke-miterlimit="10" x1="35.901" y1="514.415" x2="38.401" y2="514.415"/>
		
			<line fill="none" stroke="#CBCBCA" stroke-miterlimit="10" stroke-dasharray="4.9758,4.9758" x1="43.377" y1="514.415" x2="289.678" y2="514.415"/>
		<line fill="none" stroke="#CBCBCA" stroke-miterlimit="10" x1="292.166" y1="514.415" x2="294.666" y2="514.415"/>
	</g>
	<g style="opacity:0.8;">
		<line fill="none" stroke="#CBCBCA" stroke-miterlimit="10" x1="35.901" y1="463.563" x2="38.401" y2="463.563"/>
		
			<line fill="none" stroke="#CBCBCA" stroke-miterlimit="10" stroke-dasharray="4.9758,4.9758" x1="43.377" y1="463.563" x2="289.678" y2="463.563"/>
		<line fill="none" stroke="#CBCBCA" stroke-miterlimit="10" x1="292.166" y1="463.563" x2="294.666" y2="463.563"/>
	</g>
	<g style="opacity:0.8;">
		<line fill="none" stroke="#CBCBCA" stroke-miterlimit="10" x1="35.901" y1="309.342" x2="38.401" y2="309.342"/>
		
			<line fill="none" stroke="#CBCBCA" stroke-miterlimit="10" stroke-dasharray="4.9758,4.9758" x1="43.377" y1="309.342" x2="289.678" y2="309.342"/>
		<line fill="none" stroke="#CBCBCA" stroke-miterlimit="10" x1="292.166" y1="309.342" x2="294.666" y2="309.342"/>
	</g>
	<g style="opacity:0.8;">
		<line fill="none" stroke="#CBCBCA" stroke-miterlimit="10" x1="157.605" y1="258.49" x2="160.105" y2="258.49"/>
		
			<line fill="none" stroke="#CBCBCA" stroke-miterlimit="10" stroke-dasharray="4.8788,4.8788" x1="164.984" y1="258.49" x2="240.605" y2="258.49"/>
		<line fill="none" stroke="#CBCBCA" stroke-miterlimit="10" x1="243.044" y1="258.49" x2="245.544" y2="258.49"/>
	</g>
	
	<path fill="#02A9C0" d="M64.044,412.295h-22V294.753c0-0.921,0.492-1.667,1.1-1.667h19.8c0.608,0,1.1,0.746,1.1,1.667V412.295z"/>
	
	<path fill="#ADDEE6" d="M95.363,412.295H74.719v-30.844c0-0.921,0.462-1.667,1.032-1.667h18.579c0.57,0,1.032,0.746,1.032,1.667
		V412.295z"/>
	
	<path fill="#ADDEE6" d="M127.36,412.295h-20.644v63.356c0,0.921,0.462,1.667,1.032,1.667h18.579c0.57,0,1.032-0.746,1.032-1.667
		V412.295z"/>
	
	<path fill="#ADDEE6" d="M159.358,412.295h-20.644v98.368c0,0.921,0.462,1.667,1.032,1.667h18.579c0.57,0,1.032-0.746,1.032-1.667
		V412.295z"/>
	
	<path fill="#ADDEE6" d="M191.871,412.295h-20.643v75.86c0,0.921,0.462,1.667,1.032,1.667h18.579c0.57,0,1.032-0.746,1.032-1.667
		V412.295z"/>
	
	<path fill="#ADDEE6" d="M223.869,412.295h-20.644v-17.506c0-0.921,0.462-1.667,1.032-1.667h18.579c0.57,0,1.032,0.746,1.032,1.667
		V412.295z"/>
	
	<path fill="#ADDEE6" d="M255.866,412.295h-20.643V293.086c0-0.921,0.462-1.667,1.032-1.667h18.579c0.57,0,1.032,0.746,1.032,1.667
		V412.295z"/>
	
	<path fill="#ADDEE6" d="M287.504,412.492h-21.313V276.556c0-0.91,0.477-1.648,1.066-1.648h19.181c0.589,0,1.066,0.738,1.066,1.648
		V412.492z"/>
	<line fill="none" stroke="#676767" stroke-miterlimit="10" x1="31.626" y1="411.878" x2="294.666" y2="411.878"/>
</g>
<style>
#g-revenue-change-300-img rect, #g-revenue-change-300-img circle, #g-revenue-change-300-img path, #g-revenue-change-300-img line, #g-revenue-change-300-img polyline { vector-effect: non-scaling-stroke; }
</style>
</svg>

